@startuml
class DisplayUpdater{
    DisplayUpdater()
    updateValue()
}
class Monitoring{
    Monitoring()
    monitoringStop()
    updateValue()
}
class Scheduler{
    String operationMode
    boolean mode
    AbstractMotor centerMotor
    AbstractMotor leftMotor
    AbstractMotor rightMotor
    ColorSensor
    UltrasonicSensor
    GyroSensor
    Scheduler()
    run()
    countStop()
    setOperationMode()
}
Scheduler -- DisplayUpdater
Scheduler -- Monitoring
abstract class AbstractMotor{
    BaseRegulatedMotor
    forward()
    backward()
    stop()
    flt()
    getTachoCount()
    getMaxSpeed()
    setAcceleration()
    setSpeed()
    synchronizeWith()
    startSynchronization()
}
class CenterMotor
class LeftMotor
class RightMotor
AbstractMotor -- CenterMotor
AbstractMotor -- LeftMotor
AbstractMotor -- RightMotor
class ColorSensor{
    EV3ColorSensor
    float[] colorValue
    ColorSensor()
    getValue()
}
class GyroSensor{
    EV3GyroSensor
    float[] gyroValue
    GyroSensor()
    getValue()
    initGyro()
}
class UltrasonicSenor{
    EV3UltrasonicSensor
    float[] ultrasonicValue
    UltrasonicSensor()
    getValue()
}
interface ImplementMachine{
    float diameter
    float width
    int wait
}
interface ImplementUtil{
    run()
    setSpeed()
    setDistance()
    setAngle()
    setColorId()
    getOperationMode()
}
abstract class AbstractUtil{
    AbstractMotor leftMotor
    AbstractMotor rightMotor
    AbstractMotor centerMotor
    ColorSensor
    UltrasonicSensor
    GyroSensor
    float speed
    float speedNow
    float distance
    float angle
    int colorId
    String operationMode
    setOperationMode()
}
ImplementMachine -- AbstractUtil
ImplementUtil -- AbstractUtil
class Arm
class Backward
class BackwardWithColor
class Forward
class ForwardWithColor
class ForwardWithSonar
class Turn
class TurnWithGyro2
class GrabBottle
AbstractUtil -- Arm
AbstractUtil -- Backward
AbstractUtil -- BackwardWithColor
AbstractUtil -- Forward
AbstractUtil -- ForwardWithColor
AbstractUtil -- ForwardWithSonar
AbstractUtil -- Turn
AbstractUtil -- TurnWithGyro2
AbstractUtil -- GrabBottle
+class leJOS{
    Scheduler
    Arm
    Forward
    ForwardWithColor
    ForwardWithSonar
    Backward
    BackwardWithColor
    TurnWithGyro2
    GrabBottle3
    SearchGyro
    float MaxSpeed
    main()
    menu()
    stop()
    run()
    runTest()
    correctArm()
    setOperationMode()
    initGyro()
}
leJOS --- Scheduler
leJOS --- Arm
leJOS --- Backward
leJOS --- BackwardWithColor
leJOS --- Forward
leJOS --- ForwardWithColor
leJOS --- ForwardWithSonar
leJOS --- Turn
leJOS --- TurnWithGyro2
leJOS --- GrabBottle
leJOS --- ColorSensor
leJOS --- GyroSensor
leJOS --- UltrasonicSenor
leJOS --- CenterMotor
leJOS --- LeftMotor
leJOS --- RightMotor
@enduml